<svg xmlns="http://www.w3.org/2000/svg" version="1.1" xmlns:xlink="http://www.w3.org/1999/xlink" width="24" height="24"><svg width="24" height="24" viewBox="0 0 24 24" fill="none" xmlns="http://www.w3.org/2000/svg">
<g clip-path="url(#clip0_243_22)">
<rect width="24" height="24" fill="white"></rect>
<rect width="16" height="16" transform="translate(4 4)" fill="white"></rect>
<path d="M48.5654 4.07129H48.583V17.1182C48.583 17.7738 48.7484 18.126 49.4268 18.126L50.3223 18.127V20.001H50.3008L50.3037 20.0078L45.4658 20.001H44.8662V18.291H44.835C44.238 19.5445 43.2275 20.1848 41.9756 20.3213C41.7959 20.3429 41.6113 20.3535 41.4229 20.3535C38.1075 20.3534 36.9737 17.7383 36.8447 15.0576H29.9092L29.8975 13.1836H32.7393V12.5732C32.7393 11.379 32.1076 10.5576 30.9834 10.5576C30.5351 10.5576 30.1659 10.6832 29.8818 10.9072L29.8682 8.76562C30.2136 8.7136 30.5709 8.68457 30.9375 8.68457C34.4514 8.68472 36.5304 10.9914 36.8398 14.21C36.9149 11.4495 38.0144 8.68468 41.4229 8.68457H41.4404C42.8409 8.68467 44.1464 9.22031 44.6426 10.2451L44.6777 10.207V6.95117C44.6777 6.29927 44.5153 5.95059 43.8477 5.94531H42.8926V5.94434H42.875V4.06934H48.5654V4.07129ZM36.5801 16.3213C36.2058 19.1328 33.4663 20.3515 30.9375 20.3516C30.5902 20.3516 30.2584 20.3337 29.9424 20.3008L29.9258 17.7637C30.2785 18.1191 30.7829 18.3369 31.498 18.3369C32.3188 18.3368 33.6534 17.7029 33.8643 16.3213H36.5801ZM13.6094 4C14.078 4 14.5429 4.03222 15.001 4.14355C15.4128 4.24259 15.8396 4.38632 16.2168 4.58203C16.4624 4.7126 16.6867 4.87991 16.8818 5.07812C17.0226 5.22328 17.1408 5.38961 17.2314 5.57031C17.3411 5.78811 17.4119 6.02345 17.4404 6.26562C17.499 6.77134 17.3824 7.29547 17.0771 7.70801C16.9616 7.86053 16.821 7.99217 16.6621 8.09863C16.0769 8.49008 15.26 8.50102 14.7012 8.05566C14.3809 7.79957 14.1768 7.39368 14.1768 6.97949C14.1769 6.37839 14.5762 5.86659 15.1367 5.65918C14.8622 5.61291 14.5858 5.54695 14.2891 5.54688C13.1878 5.54688 13.0703 6.50503 13.0703 7.46777V9.01172H15.8125V11.1914H13.0703V17.1182C13.0703 17.7738 13.2351 18.126 13.9141 18.126H15.8428C15.8935 18.126 15.9412 18.123 15.9863 18.1191V20H7.33301V18.126H8.33984C9.01876 18.126 9.18358 17.7738 9.18359 17.1182V11.1914H7.4502V9.01172H9.18359V8.75488C9.18373 5.42921 10.6127 4.00008 13.6094 4ZM42.832 10.6992C41.5313 10.7101 40.9951 12.1375 40.9951 14.4238C40.9951 16.7189 41.5355 18.1707 42.8457 18.1709C42.9194 18.1712 42.9934 18.1662 43.0664 18.1562C44.2058 17.9875 44.6777 16.576 44.6777 14.4248C44.6777 12.1318 44.1401 10.7033 42.832 10.6992Z" fill="#191919"></path>
</g>
<defs>
<clipPath id="SvgjsClipPath1001">
<rect width="24" height="24" fill="white"></rect>
</clipPath>
</defs>
</svg><style>@media (prefers-color-scheme: light) { :root { filter: none; } }
@media (prefers-color-scheme: dark) { :root { filter: none; } }
</style></svg>