<svg xmlns="http://www.w3.org/2000/svg" viewBox="0 0 162 66" fill="none">
  <path d="M108.693 36.6519C115.31 40.2803 121.153 43.7099 127.227 46.6921C129.801 47.9546 131.119 49.3861 131.078 52.2192C131.048 54.0384 131.561 55.8774 131.471 57.6966C131.3 61.2455 130.063 62.1601 126.412 61.9016C118.458 61.3449 111.066 59.3667 104.168 55.0723C98.5761 51.583 92.3412 49.0878 86.6593 46.2746C76.3414 50.3006 66.4258 54.1974 56.4801 58.0048C54.7001 58.6907 53.1213 59.317 52.186 61.1858C51.7838 61.991 50.6373 62.677 49.7021 62.9354C45.8203 63.9892 41.9185 65.023 37.9663 65.7587C34.0041 66.4843 32.7973 65.6692 31.128 62.001C28.2016 55.5792 28.4831 54.3565 34.9695 51.3842C43.6783 47.388 52.538 43.7099 61.3273 39.8926C61.8703 39.654 62.3832 39.3558 63.6 38.7196C58.2601 36.5326 53.2821 35.4192 48.3143 34.3158C35.0399 31.3733 21.7252 28.5998 8.46083 25.5778C3.3723 24.4147 0.667138 21.005 0.0436416 15.9252C-0.187655 14.0067 0.48616 12.7044 2.40693 11.9787C5.28306 10.9051 8.09883 9.69234 10.9448 8.5392C13.8611 7.3463 16.6467 6.25278 19.5329 8.9368C20.3777 9.72213 22.2079 9.41396 23.5454 9.74201C36.6288 12.943 49.7524 16.0048 62.7653 19.4642C70.8205 21.6114 78.7248 24.3153 86.6492 26.9098C88.8114 27.6156 90.6718 27.8045 92.8541 26.8502C105.314 21.4026 117.844 16.1041 130.334 10.7261C136.418 8.10176 142.422 5.27859 148.566 2.80332C151.523 1.61042 154.731 1.02391 158.412 0C159.628 3.38983 160.986 6.44166 161.801 9.63267C162.464 12.2272 161.469 14.4838 158.844 15.7463C155.365 17.4164 151.935 19.2355 148.375 20.7167C137.826 25.1106 127.227 29.3951 116.627 33.6895C114.254 34.6538 111.841 35.4888 108.693 36.6618V36.6519Z" fill="currentColor"/>
</svg>
