<svg xmlns="http://www.w3.org/2000/svg" viewBox="0 0 48 48" fill="currentColor">
    <path d="M23.3961 22.8478C20.8567 20.8606 18.3297 19.0969 16.0677 17.0352C14.3234 15.4392 12.8256 13.5389 11.3957 11.6448C10.7362 10.7754 10.9334 9.75695 11.747 8.78196C12.3387 8.07401 12.536 7.01829 12.8688 6.0992C13.553 4.21754 15.0137 3.02519 16.8381 3.00035C18.0277 2.98172 19.7103 3.71451 20.3513 4.67086C22.2189 7.46541 24.9308 9.1732 27.4764 11.1294C29.8 12.9179 32.1484 14.6629 34.4782 16.4452C36.0252 17.6251 36.5368 20.9227 35.3349 22.4814C32.7709 25.8038 30.0466 29.002 27.5812 32.3927C26.1143 34.4048 24.9555 36.6591 23.7598 38.8512C22.6257 40.9316 21.2019 42.7574 19.3836 44.2416C17.7072 45.614 16.0492 44.9806 14.0768 43.484C12.5298 42.3102 12.462 40.9068 13.3311 39.0313C15.6917 33.9266 18.4899 29.0952 21.9477 24.6674C22.3668 24.1333 22.7921 23.6054 23.4085 22.8416L23.3961 22.8478Z" fill="currentColor" stroke="currentColor" stroke-width="6" stroke-miterlimit="10"/>
</svg>
