<svg width="40" height="40" viewBox="0 0 40 40" fill="none" xmlns="http://www.w3.org/2000/svg">
<path d="M23.186 31.2571C20.6139 27.1475 16.4876 24.4476 12.8945 21.2229C11.3409 19.83 9.95059 18.2597 8.42887 16.8304C7.37122 15.8363 6.32883 14.7975 5.08633 14.0389C3.29048 12.9407 2.62712 11.082 1.81942 9.29859C1.42586 8.42862 2.14834 7.88884 2.80199 7.42631C4.55356 6.19555 6.32957 5.01253 8.09913 3.81208C9.07072 3.14946 9.73717 3.19406 10.5448 3.94028C12.4049 5.6543 14.4729 7.15857 16.4478 8.75412C16.7272 8.9834 16.9734 9.2579 17.2413 9.50521C20.173 12.1467 23.1812 14.7195 26.0094 17.4614C28.1403 19.5286 30.0313 21.8418 32.0588 24.0094C32.5115 24.4935 33.259 24.7209 33.6389 25.247C34.2999 26.179 34.8013 27.2308 35.3232 28.2644C35.5083 28.6247 35.5797 29.0637 35.6677 29.4802C36.0911 31.5232 35.6898 32.1232 33.5184 32.7011C31.5233 33.2292 29.5308 33.8013 27.5267 34.2679C27.0614 34.3756 26.432 34.2901 26.1167 34.0311C25.0991 33.1945 24.1925 32.2353 23.1809 31.2617L23.186 31.2571Z" fill="currentColor"/>
<path d="M25.2254 21.8228C23.0239 24.5022 21.0306 27.3816 18.5771 29.8091C16.0377 32.3225 14.3842 35.8611 10.4612 36.9172C9.23984 37.2437 8.62156 36.8629 8.14791 35.9552C7.2371 34.2337 6.39665 32.4678 5.6273 30.683C5.44632 30.2645 5.50693 29.6044 5.72306 29.2146C6.11103 28.5051 6.67462 27.8894 7.20878 27.2771C10.0091 24.0337 12.8054 20.7943 15.6359 17.5729C18.7925 13.9732 21.932 10.3646 25.1709 6.839C26.7188 5.15208 28.8621 4.35538 31.085 3.82661C32.1106 3.58287 32.9473 3.93639 33.2228 5.12911C33.6683 7.08143 34.0636 9.04914 34.5635 10.9904C34.754 11.7296 34.6328 12.0506 34.0373 12.5853C32.3696 14.0705 30.868 15.7545 29.3615 17.4174C28.0143 18.9037 26.7452 20.4681 25.4414 21.9978C25.3721 21.9368 25.2988 21.8798 25.2338 21.8231L25.2254 21.8228Z" fill="currentColor"/>
</svg>
