<svg width="40" height="40" viewBox="0 0 40 40" fill="none" xmlns="http://www.w3.org/2000/svg">
<path d="M31.4042 32.8019C26.6275 31.9722 21.8624 33.2408 17.0627 33.7619C14.9884 33.9882 12.8911 33.9745 10.811 34.1528C9.36474 34.2762 7.89544 34.3585 6.50105 34.7768C4.48437 35.3802 2.65783 34.6328 0.790962 34.0431C-0.119425 33.7551 -0.0387572 32.8568 0.0534339 32.0614C0.306959 29.9357 0.612343 27.8237 0.90044 25.7049C1.05601 24.5392 1.53425 24.0729 2.62902 23.9701C5.14699 23.7301 7.64767 23.1952 10.1541 22.7907C10.5114 22.7358 10.8801 22.7358 11.2431 22.7015C15.167 22.2833 19.0909 21.7621 23.0205 21.4878C25.9822 21.2821 28.9669 21.4192 31.9343 21.3575C32.5969 21.3438 33.2653 20.9392 33.9106 21.0078C35.0457 21.1381 36.1635 21.4673 37.2814 21.769C37.6732 21.8718 38.0477 22.1118 38.4164 22.3244C40.2199 23.3735 40.3986 24.0729 39.3787 26.0752C38.4395 27.9129 37.5349 29.778 36.5438 31.5814C36.3133 31.9997 35.8293 32.4111 35.426 32.4728C34.1238 32.6717 32.8043 32.7059 31.4042 32.8088V32.8019Z" fill="currentColor"/>
<path d="M22.205 15.6407C18.7536 15.9786 15.3081 16.6052 11.8568 16.5868C8.28389 16.5683 4.61253 17.9014 1.09172 15.8742C-0.00273572 15.2414 -0.170665 14.535 0.136247 13.5582C0.709536 11.6968 1.36389 9.85391 2.08195 8.04783C2.24988 7.62396 2.75947 7.20007 3.18799 7.07721C3.96396 6.84991 4.79784 6.81306 5.60856 6.75777C9.88216 6.44448 14.15 6.13118 18.4294 5.85474C23.2068 5.54144 27.9784 5.20971 32.7616 5.00698C35.049 4.90869 37.1278 5.86087 39.0736 7.05878C39.9711 7.61166 40.3128 8.45328 39.6642 9.49147C38.5987 11.187 37.4869 12.8579 36.4677 14.5841C36.0797 15.2414 35.767 15.3827 34.9679 15.3397C32.7384 15.2107 30.4858 15.3397 28.2448 15.4503C26.2412 15.5486 24.2375 15.7574 22.2339 15.9172C22.2281 15.825 22.2165 15.7329 22.2108 15.6469L22.205 15.6407Z" fill="currentColor"/>
</svg>
