<svg viewBox="0 0 77 80" fill="none" xmlns="http://www.w3.org/2000/svg">
<path fill-rule="evenodd" clip-rule="evenodd" d="M42.9159 0.0244346C55.3789 -0.417435 65.2252 5.21477 69.6698 10.3457C78.3275 20.3411 79.413 36.291 72.3212 50.4903C71.4239 52.2868 70.0405 55.05 67.4159 58.041C64.8054 61.016 61.2562 63.907 56.2108 66.7285C54.2859 67.805 52.2735 68.2282 50.8055 68.4307C49.2326 68.6477 47.5982 68.6978 46.0555 68.6729C44.1544 68.6421 42.1087 68.4884 40.0506 68.2725C38.3375 68.3134 36.3904 68.2658 34.6171 68.2139C31.628 68.1264 28.9939 68.0239 27.4579 68.1074L27.5672 68.377L27.0917 69.5127C27.0136 69.6992 26.9459 69.9002 26.8368 70.2354C26.7408 70.5302 26.5985 70.9733 26.4032 71.4209C25.9803 72.39 25.2937 73.4254 24.0399 74.2364C23.9819 74.3215 23.8969 74.464 23.7596 74.7266C23.6379 74.9594 23.4116 75.4119 23.1942 75.791C22.9606 76.1984 22.6327 76.7161 22.1756 77.2041L22.1698 77.209C20.6088 78.8671 17.4557 80.9001 14.0008 79.2949H14.0028C11.8244 78.2865 9.79626 76.7417 8.2235 74.9844L8.22252 74.9854C4.33544 70.646 2.28525 65.398 0.732285 60.4522L0.731308 60.4512C0.0361059 58.2345 -0.289198 55.9158 0.324081 53.5664C0.944286 51.191 2.41728 49.1877 4.5526 47.3994V47.4004C7.9519 44.5512 11.7861 42.264 16.6063 41.3428L16.6073 41.3438C19.1407 40.8588 21.5168 39.7459 24.5096 38.5449C27.0426 37.5286 29.7307 38.1933 31.6366 39.417C33.5495 40.6455 35.2889 42.8333 35.371 45.6279L35.37 45.6289C35.4035 46.7053 35.0804 48.0231 34.2645 49.0401C33.9859 49.3881 33.6787 49.7818 33.3446 50.1983C35.0722 50.471 36.8064 50.7361 38.5057 50.9649C41.5713 51.3776 44.2538 51.6412 46.3309 51.6748C47.3268 51.6909 48.0117 51.6489 48.4325 51.5947C51.7655 49.6722 53.5731 48.0421 54.6376 46.8291C55.7418 45.5708 56.3295 44.4616 57.1122 42.8946C60.8133 35.4842 60.5024 28.8415 58.6727 24.5303C57.8398 23.515 57.1287 22.6565 56.5458 21.9785C56.1224 21.4861 55.7882 21.1108 55.5399 20.8467C55.395 20.6926 55.3122 20.6124 55.2811 20.5821C54.8744 20.2841 54.2175 19.8229 51.1131 18.6348C49.5173 18.024 48.1684 17.5377 46.9754 17.1699C45.8948 17.0329 44.7402 16.9704 43.5184 17.0137C40.2773 17.1287 37.3067 18.082 35.9325 18.5547C31.4934 20.0816 26.6567 17.7203 25.1297 13.2813C23.603 8.84233 25.9634 4.00559 30.4022 2.47854C32.1597 1.87399 37.0755 0.231601 42.9159 0.0244346Z" fill="currentColor"/>
</svg>
