<svg xmlns="http://www.w3.org/2000/svg" width="32" height="32" viewBox="0 0 199 181" fill="none">
  <g clip-path="url(#clip0_7982_10189)">
    <path d="M67.9618 3.90816C87.9691 -2.7357 109.352 -0.634306 128.37 8.13082C147.694 17.0375 163.27 30.3542 177.475 45.6279C191.818 61.0515 199.934 81.2393 197.621 102.638C195.434 122.876 183.72 139.201 167.812 150.876C149.676 164.186 127.92 174.081 105.971 178.961C85.5574 183.5 63.0204 179.487 44.4892 170.59C24.5839 161.034 9.46475 146.206 3.6552 124.147C0.0700266 110.536 -1.32259 94.9069 1.51751 80.3564C0.992342 77.3521 0.772342 74.2121 0.900321 70.8936L0.954032 69.8242C1.627 58.8714 6.03448 50.7283 12.1366 42.1172C18.2374 33.5076 22.9593 24.2653 33.5839 18.6992C44.2706 13.0997 55.612 8.18463 67.0106 4.23141L67.9618 3.90816ZM114.161 23.8223C105.926 20.962 96.9925 19.1714 88.4442 19.7275C80.7868 20.2251 73.6568 22.8394 66.2304 25.7549C57.8059 29.0625 48.4936 32.4295 41.1034 37.0918C38.5993 38.6717 36.7405 40.8898 34.995 43.4971C34.1183 44.8066 33.2999 46.1671 32.4286 47.5908C31.5686 48.996 30.6651 50.4496 29.6649 51.8486C27.6406 54.68 25.807 57.2043 24.33 59.7441C25.1869 60.5613 25.9012 61.5345 26.3905 62.6484C27.4182 64.9886 27.3579 67.7331 25.8876 70.4912C24.2233 73.6131 22.9199 76.9704 21.9501 80.4766C23.1111 83.8172 25.0036 86.9445 27.455 90.2793C29.3071 92.7984 29.7853 95.5319 29.2079 98.0352C28.6435 100.482 27.1082 102.563 25.1825 103.979C23.7447 105.037 22.0185 105.775 20.1952 106.003C20.8792 112.216 22.3025 118.287 24.3329 123.813C30.9222 141.752 47.834 152.576 66.2128 157.666C83.063 162.332 98.9519 161.319 115.479 155.648L117.02 155.112C132.927 149.501 148.823 141.51 161.437 130.523C173.272 120.214 179.587 105.877 177.966 90.2148C176.237 73.5133 165.794 61.5762 153.998 49.5371C143.285 38.6035 128.588 28.8326 114.161 23.8223ZM131.602 98.4502C134.113 98.3315 136.67 99.1243 138.652 100.412H138.653C141.697 102.391 144.462 105.435 146.515 108.129C148.411 110.617 148.929 113.337 148.37 115.842C147.824 118.287 146.292 120.365 144.366 121.78C142.44 123.196 139.993 124.042 137.485 123.872C137.015 123.84 136.546 123.772 136.084 123.668C135.65 124.584 135.19 125.49 134.688 126.346C133.478 128.407 131.921 130.396 129.748 131.638C127.499 132.923 124.824 133.276 121.686 132.478C118.822 131.749 116.562 130.176 114.668 128.325C112.051 131.97 107.29 134.599 102.219 132.19L102.218 132.189C101.222 131.716 100.368 131.152 99.6151 130.533C98.6686 132.898 97.6119 135.289 95.9716 137.621C94.6953 139.435 92.5795 140.636 90.4823 141.17C88.3891 141.702 85.9104 141.67 83.8837 140.49V140.489C79.0403 137.668 76.0034 133.394 73.3124 129.417C72.5066 128.226 71.7328 127.067 70.953 125.956C70.736 126.319 70.5196 126.69 70.3036 127.066C68.5017 130.21 66.6401 133.94 64.2958 136.803C62.3679 139.157 59.3165 140.423 56.3837 140.47C53.4145 140.517 50.2617 139.304 48.4403 136.319V136.32C46.1297 132.534 44.8588 128.006 43.4628 124.368C42.3437 121.452 42.6077 118.692 43.827 116.433C45.0191 114.224 47.0494 112.625 49.2811 111.77C51.5128 110.914 54.0913 110.747 56.454 111.591C56.6203 111.65 56.7846 111.715 56.9472 111.784C59.051 108.606 61.512 105.504 64.8397 103.121L65.1913 102.881C68.85 100.484 73.463 100.818 76.871 103.329C80.3725 105.91 82.9812 109.118 85.33 112.395C87.1011 108.212 89.9181 104.064 95.6259 103.424C98.0051 103.157 100.236 103.732 102.26 104.77C103.026 103.447 104.028 102.193 105.392 101.104C107.142 99.7077 109.412 99.0972 111.559 99.1348C113.705 99.1725 115.96 99.8629 117.656 101.364C119.405 102.912 120.908 104.572 122.309 106.27C123.062 104.891 123.863 103.538 124.727 102.232L124.728 102.231C126.427 99.6639 129.038 98.5716 131.602 98.4502ZM68.1767 43.2178C73.4611 40.3603 78.833 42.7731 81.5565 46.457C82.9721 48.372 83.819 50.7919 83.5487 53.252C83.2702 55.7877 81.8293 58.1104 79.163 59.7285C76.9424 61.0762 74.8426 63.7477 72.7929 67.0244C71.7888 68.6296 70.8407 70.3053 69.9179 71.9414C69.7364 72.2632 69.5523 72.5825 69.372 72.9014C69.8725 73.1769 70.3741 73.4565 70.8769 73.7402C75.2439 76.2047 78.1591 81.3472 75.7401 86.7803C74.6896 89.1406 72.5851 91.0077 70.2323 91.9883C67.8667 92.9742 64.977 93.1674 62.4335 91.7324L62.4325 91.7314C61.3698 91.1315 60.2896 90.5394 59.1981 89.9482C58.4619 91.5155 57.8412 93.0941 57.3895 94.6865C55.6661 100.763 49.8899 102.912 45.2372 102.167C42.8899 101.791 40.5938 100.66 39.0907 98.7041C37.5375 96.6825 37.0107 94.0087 37.8622 91.0059L38.1103 90.1602C39.1656 86.6709 40.5722 83.3669 42.1737 80.1865C40.7518 79.2222 39.3597 78.2105 38.0116 77.1367C35.566 75.1884 34.3923 72.675 34.3017 70.1084C34.2132 67.6 35.1606 65.1949 36.6571 63.3311C38.1537 61.4673 40.2974 60.0225 42.7636 59.5566C45.2859 59.0803 47.9985 59.6608 50.4384 61.6045C51.0374 62.0817 51.6448 62.542 52.2597 62.9883C52.6903 62.2458 53.1319 61.4828 53.5849 60.7012C54.7938 58.6149 56.0832 56.4262 57.4745 54.3135C60.2332 50.1242 63.5237 46.0243 67.6659 43.5107L68.1767 43.2178ZM132.097 36.0225C134.593 35.9038 136.991 36.8498 138.853 38.3467C142.559 41.3277 144.662 47.0544 140.8 52.2129C139.056 54.5417 137.576 57.2221 136.156 60.0664C135.969 60.4421 135.781 60.8258 135.591 61.2148C138.008 62.5894 140.518 63.8362 143.233 65.335C146.098 66.9163 149.001 68.6852 151.461 70.8545L151.672 71.0449C153.778 73.0029 155.813 76.4385 155.024 80.0166L154.937 80.374C154.482 82.0416 153.898 83.4468 153.034 84.7383C152.174 86.0235 151.098 87.1037 149.772 88.1885L149.771 88.1875C147.188 90.3014 144.248 90.5769 141.441 89.8701C138.734 89.1879 136.067 87.5827 133.664 85.8135C131.24 84.029 128.905 81.9409 126.901 80.1621C126.897 80.1583 126.893 80.1542 126.889 80.1504C126.059 82.2911 125.254 84.4659 124.432 86.6875C123.347 89.6198 121.334 91.4915 118.904 92.2881C116.541 93.0626 113.989 92.7564 111.812 91.7822C107.484 89.8452 103.937 84.8514 106.159 78.8467C107.398 75.4976 108.651 72.2092 110.007 68.9531C107.656 67.5019 105.314 66.0358 102.981 64.5537C100.345 62.8783 98.9538 60.5307 98.7597 57.9873C98.5718 55.525 99.5233 53.148 101.018 51.2979C103.979 47.6306 109.712 45.3736 115.045 48.7627C116.233 49.5176 117.426 50.2656 118.62 51.0107C120.54 47.1908 122.619 43.3184 125.19 39.8848L125.549 39.4307C127.375 37.2302 129.696 36.1366 132.097 36.0225Z" fill="currentColor"/>
  </g>
  <defs>
    <clipPath id="clip0_7982_10189">
      <rect width="199" height="181" fill="white"/>
    </clipPath>
  </defs>
</svg>
